<svg width="182" height="208" viewBox="0 0 182 208" fill="none" xmlns="http://www.w3.org/2000/svg">
<path d="M151.833 121.369C149.764 127.269 152.959 128.996 157.508 126.6C170.279 119.907 170.86 102.526 173.586 104.932C185.53 115.407 182.934 141.53 171.123 154.337C156.304 170.401 139.526 162.4 134.627 161.828C131.067 161.401 125.505 162.864 125.462 167.292C125.404 171.537 132.932 177.603 128.019 191.265C119.359 215.31 84.671 206.505 82.8588 205.147C81.0467 203.789 80.7542 200.671 86.182 198.315C90.0682 196.641 91.8119 192.674 81.0785 194.58C60.0189 198.333 48.4024 197.456 29.9127 165.3C29.3995 164.411 30.6246 163.701 31.2769 164.32C53.4293 184.586 93.7547 167.538 75.6014 161.795C69.9352 159.979 62.6083 162.199 56.7143 163.094C31.676 166.81 14.4581 149.89 16.835 132.149C17.4257 127.749 22.4879 140.954 41.2348 142.55C52.8749 143.55 65.3625 138.3 61.6055 133.967C51.8665 122.708 -7.04508 146.244 4.92308 93.1961C5.90005 88.8362 9.08182 101.879 27.8129 110.8C35.6968 114.576 58.424 120.136 58.3947 112.199C58.4644 108.41 51.3893 107.55 35.829 103.677C7.37329 96.6589 -0.102684 83.3845 3.82601 55.5246C4.47699 50.8713 11.0339 65.6048 23.6968 71.8675C35.3164 77.6174 40.7489 72.1336 29.5404 63.1341C21.3647 56.5661 9.21103 53.5643 4.30139 43.9475C-1.56946 32.4475 6.27798 17.1002 1.8633 9.24857C1.70188 8.96583 -0.0645477 6.64618 1.78202 6.61833C13.5921 6.4648 17.9737 5.50608 19.7385 9.86239C20.2501 11.1499 20.6608 14.9148 22.8246 15.2406C24.0665 15.4285 24.8686 9.091 22.4407 4.01821C20.9855 0.989694 35.2668 2.30006 37.9633 8.99207C39.8686 13.7294 37.289 17.8802 39.8494 29.9785C44.5716 52.2728 56.2598 54.1384 50.5049 26.5463C46.4315 7.01166 38.6105 0.483752 42.2394 0.89051C51.4703 1.93718 64.3157 -2.72548 70.9612 9.5687C78.9341 24.2414 67.189 38.6444 66.5535 64.1573C66.4708 67.365 65.7371 81.7471 72.3006 78.5998C79.7598 74.9835 70.8254 61.9348 77.3947 43.8257C79.7295 37.3913 82.8798 32.2787 82.2597 23.8579C81.2279 9.67669 71.5681 5.47884 74.884 4.79819C81.5564 3.40795 88.3316 8.38261 96.2072 12.8068C104.678 17.5688 111.466 20.3739 109.95 30.0846C104.156 67.207 89.0734 86.9145 96.867 104.113C99.2255 100.521 120.032 56.3643 112.308 26.4297C112.093 25.5941 113.163 25.1705 113.716 25.7049C123.878 35.5451 142.339 42.7206 141.171 59.7041C139.862 78.9315 113.014 91.8661 118.491 110.821C139.972 82.4532 147.72 74.561 146.514 63.3799C146.489 63.2351 146.505 63.0859 146.562 62.9502C146.618 62.8144 146.713 62.6977 146.833 62.6138C146.954 62.5299 147.096 62.4823 147.243 62.4767C147.39 62.4711 147.536 62.5077 147.663 62.5822C193.313 92.9506 155.246 111.636 151.833 121.369ZM148.149 64.7017C148.436 76.0612 140.774 83.9809 118.986 113.112C118.637 113.577 117.75 113.692 117.496 113.044C107.25 87.5722 156.57 69.7521 133.286 43.9045C127.865 37.8831 120.606 33.9609 114.507 28.6779C121.034 59.531 98.0549 109.975 96.0338 106.156C86.9246 88.9667 99.7276 74.9657 107.894 32.4709C109.263 25.3488 109.327 22.1666 100.117 16.9262C84.7079 8.15607 81.3116 6.00722 76.7101 6.27593C92.8369 25.0945 77.2152 40.912 76.544 57.3932C76.1283 67.3093 78.1386 71.5553 76.669 75.9777C75.138 80.5591 68.7422 82.8885 66.2469 77.7311C56.1273 56.8786 87.0492 11.5 61.2137 3.54712C55.5738 1.81343 49.5208 3.17116 43.6951 2.86908C52.5961 19.5613 55.704 40.3722 52.8876 45.9173C50.8288 49.9829 45.491 51.1078 41.2007 40.6393C31.3962 16.7061 44.6338 4.98648 24.5629 4.5722C25.9235 8.15842 26.5779 16.2752 23.7184 17.0391C19.3517 18.1811 18.4049 10.4851 17.3672 9.36507C15.9963 7.87571 12.8767 8.30422 8.78511 8.35826C1.46512 8.45942 4.10186 7.30915 4.47293 14.1801C5.06922 23.8219 1.15434 34.6959 5.62891 43.3438C10.7879 53.4605 24.9499 55.9297 33.0712 64.339C45.597 77.2888 27.313 84.4721 5.37073 57.8152C4.01418 68.4064 3.73796 80.2468 10.9475 88.8469C25.7547 106.508 61.5596 101.83 60.2677 112.81C59.1975 121.917 25.1181 120.259 6.33668 95.6337C-2.30233 135.31 34.3398 126.217 54.2434 129.644C83.1593 134.636 42.7635 157.573 18.5417 134.229C17.931 146.949 28.3076 160.544 47.061 161.891C57.7656 162.664 66.248 158.378 74.3069 159.805C98.9433 164.192 61.0261 187.882 33.8243 168.528C57.837 209.468 78.4236 189.298 88.4308 192.641C91.3448 193.575 92.2293 197.008 88.3977 199.298C86.8743 200.186 84.7594 200.527 83.7789 202.145C82.2895 204.597 87.5167 204.834 88.914 205.061C98.2072 206.568 108.342 207.579 116.602 202.938C123.128 199.286 127.801 191.584 127.995 183.015C128.22 172.712 120.058 167.87 126.488 162.486C112.968 155.98 103.455 144.605 101.832 144.756C85.4843 146.617 68.7229 162.059 40.8347 150.55C40.25 150.31 40.5304 149.402 41.1398 149.597C68.4226 160.44 84.9594 145.535 101.346 143.519C75.5418 117.903 91.1474 119.145 65.9849 122.79C29.2447 128.092 22.1285 116.645 25.5744 118.442C44.6175 128.356 68.4166 119.789 81.6138 119.797C72.9324 107.564 65.7864 95.1934 57.9991 82.0714C55.9702 82.7338 32.7877 86.1319 11.6131 75.1361C11.0086 74.8269 11.5708 73.957 12.1658 74.2631C32.9032 84.9193 49.713 81.2224 57.3348 80.9659C49.8863 68.4249 42.7328 56.766 34.1082 45.6018C29.1863 46.0513 18.0383 43.3193 9.53811 36.3217C9.03349 35.8975 9.57975 35.012 10.1004 35.4518C16.6325 40.7916 24.6974 43.9092 33.1227 44.3514C27.3037 36.8218 20.7879 29.8575 13.6617 23.5509C12.6586 22.6835 13.8476 19.6937 29.7828 38.3563C31.8929 34.8688 33.0823 30.9023 33.2395 26.8292C33.3967 22.756 32.5165 18.7097 30.6814 15.0699C30.6515 15.0127 30.6331 14.9502 30.6273 14.886C30.6215 14.8217 30.6284 14.7569 30.6477 14.6953C30.6669 14.6337 30.6981 14.5765 30.7395 14.5269C30.7808 14.4774 30.8315 14.4365 30.8887 14.4065C30.9459 14.3766 31.0084 14.3582 31.0727 14.3524C31.1369 14.3466 31.2017 14.3535 31.2633 14.3728C31.3249 14.392 31.3822 14.4232 31.4317 14.4646C31.4812 14.506 31.5221 14.5567 31.5521 14.6139C33.5628 18.4555 34.533 22.7565 34.366 27.0894C34.199 31.4222 32.9008 35.6358 30.6004 39.3114C39.2623 49.6055 46.7124 60.9289 53.7501 72.4247C53.7549 57.1055 64.1988 46.3704 60.3418 20.9826C60.2327 20.3071 61.2831 20.0767 61.3892 20.7617C65.7099 47.9467 54.1347 58.2143 55.0973 74.316C55.1317 74.8311 72.0817 103.763 82.0759 117.928C95.2394 80.8781 81.7389 60.2864 93.633 37.226C93.9144 36.6756 94.6952 37.1883 94.4454 37.7383C83.5486 59.2597 95.7194 92.7509 82.9729 119.192C87.281 125.302 91.946 131.152 96.9435 136.711C95.5279 121.892 117.602 86.6261 124.401 60.0009C124.584 59.4295 125.419 59.7075 125.277 60.2816C118.928 87.8282 96.7376 120.673 98.2925 137.941C98.4529 139.767 118.056 156.781 118.847 155.722C124.251 148.359 152.163 155.896 161.144 134.16C163.362 128.811 163.357 148.719 132.764 152.862C127.09 153.627 123.676 153.268 119.825 156.539C119.727 156.613 118.718 156.027 127.781 161.629C137.107 156.217 145.38 168.97 162.627 159.322C179.257 150.024 183.908 125.514 177.062 111.748C171.022 99.5956 174.543 115.414 161.884 125.786C153.351 132.755 147.694 128.716 150.367 120.962C153.861 110.877 166.136 107.47 168.018 96.0918C170.136 82.4051 159.14 72.1509 148.149 64.7017Z" fill="white" fill-opacity="0.38"/>
</svg>
