<svg width="147" height="246" viewBox="0 0 147 246" fill="none" xmlns="http://www.w3.org/2000/svg">
<path d="M-54.6393 139.369C-52.5702 145.269 -55.7655 146.996 -60.3137 144.6C-73.0849 137.907 -73.6665 120.526 -76.3922 122.932C-88.3357 133.407 -85.7403 159.53 -73.9291 172.337C-59.1104 188.401 -42.3317 180.4 -37.4327 179.828C-33.8731 179.401 -28.3115 180.864 -28.2683 185.292C-28.2102 189.537 -35.7381 195.603 -30.8248 209.265C-22.1648 233.31 12.5229 224.505 14.335 223.147C16.1471 221.789 16.4397 218.671 11.0118 216.315C7.12567 214.641 5.38196 210.674 16.1154 212.58C37.1749 216.333 48.7915 215.456 67.2812 183.3C67.7944 182.411 66.5693 181.701 65.9169 182.32C43.7645 202.586 3.43916 185.538 21.5924 179.795C27.2587 177.979 34.5856 180.199 40.4795 181.094C65.5179 184.81 82.7357 167.89 80.3588 150.149C79.7681 145.749 74.706 158.954 55.9591 160.55C44.3189 161.55 31.8314 156.3 35.5884 151.967C45.3273 140.708 104.239 164.244 92.2708 111.196C91.2938 106.836 88.112 119.879 69.3809 128.8C61.4971 132.576 38.7698 138.136 38.7991 130.199C38.7295 126.41 45.8045 125.55 61.3648 121.677C89.8206 114.659 97.2965 101.385 93.3678 73.5246C92.7169 68.8713 86.16 83.6048 73.4971 89.8675C61.8774 95.6174 56.4449 90.1336 67.6534 81.1341C75.8291 74.5661 87.9828 71.5643 92.8925 61.9475C98.7633 50.4475 90.9159 35.1002 95.3305 27.2486C95.492 26.9658 97.2584 24.6462 95.4118 24.6183C83.6017 24.4648 79.2202 23.5061 77.4553 27.8624C76.9438 29.1499 76.533 32.9148 74.3692 33.2406C73.1274 33.4285 72.3252 27.091 74.7531 22.0182C76.2084 18.9897 61.9271 20.3001 59.2305 26.9921C57.3252 31.7294 59.9049 35.8802 57.3445 47.9785C52.6222 70.2728 40.934 72.1384 46.6889 44.5463C50.7623 25.0117 58.5834 18.4838 54.9544 18.8905C45.7236 19.9372 32.8781 15.2745 26.2327 27.5687C18.2597 42.2414 30.0049 56.6444 30.6403 82.1573C30.7231 85.365 31.4567 99.7471 24.8933 96.5998C17.434 92.9835 26.3684 79.9348 19.7992 61.8257C17.4644 55.3913 14.3141 50.2787 14.9341 41.8579C15.966 27.6767 25.6257 23.4788 22.3099 22.7982C15.6374 21.408 8.86229 26.3826 0.986697 30.8068C-7.48423 35.5688 -14.272 38.3739 -12.7566 48.0846C-6.96249 85.207 8.1205 104.914 0.32681 122.113C-2.03164 118.521 -22.8383 74.3643 -15.1143 44.4297C-14.899 43.5941 -15.9693 43.1705 -16.5226 43.7049C-26.6846 53.5451 -45.1455 60.7206 -43.9774 77.7041C-42.6677 96.9315 -15.8204 109.866 -21.2975 128.821C-42.7784 100.453 -50.5262 92.561 -49.3205 81.3799C-49.295 81.2351 -49.3115 81.0859 -49.368 80.9502C-49.4246 80.8144 -49.5188 80.6977 -49.6395 80.6138C-49.7603 80.5299 -49.9026 80.4823 -50.0495 80.4767C-50.1965 80.4711 -50.3419 80.5077 -50.4687 80.5822C-96.1192 110.951 -58.052 129.636 -54.6393 139.369ZM-50.9552 82.7017C-51.2426 94.0612 -43.5805 101.981 -21.7922 131.112C-21.4435 131.577 -20.5561 131.692 -20.3019 131.044C-10.0557 105.572 -59.3757 87.7521 -36.0925 61.9045C-30.6713 55.8831 -23.4119 51.9609 -17.3131 46.6779C-23.8398 77.531 -0.861057 127.975 1.16003 124.156C10.2692 106.967 -2.53375 92.9657 -10.7003 50.4709C-12.0688 43.3488 -12.1329 40.1666 -2.92275 34.9262C12.486 26.1561 15.8823 24.0072 20.4837 24.2759C4.35695 43.0945 19.9786 58.912 20.6498 75.3932C21.0655 85.3093 19.0552 89.5553 20.5248 93.9777C22.0558 98.5591 28.4517 100.889 30.9469 95.7311C41.0666 74.8786 10.1447 29.5 35.9801 21.5471C41.6201 19.8134 47.6731 21.1712 53.4987 20.8691C44.5978 37.5613 41.4899 58.3722 44.3063 63.9173C46.3651 67.9829 51.7029 69.1078 55.9931 58.6393C65.7976 34.7061 52.5601 22.9865 72.6309 22.5722C71.2704 26.1584 70.616 34.2752 73.4754 35.0391C77.8422 36.1811 78.7889 28.4851 79.8266 27.3651C81.1976 25.8757 84.3171 26.3042 88.4087 26.3583C95.7287 26.4594 93.092 25.3092 92.7209 32.1801C92.1246 41.8219 96.0395 52.6959 91.5649 61.3438C86.406 71.4605 72.244 73.9297 64.1227 82.339C51.5968 95.2888 69.8808 102.472 91.8231 75.8152C93.1797 86.4064 93.4559 98.2468 86.2463 106.847C71.4392 124.508 35.6342 119.83 36.9261 130.81C37.9964 139.917 72.0758 138.259 90.8572 113.634C99.4962 153.31 62.854 144.217 42.9505 147.644C14.0345 152.636 54.4304 175.573 78.6522 152.229C79.2628 164.949 68.8863 178.544 50.1328 179.891C39.4283 180.664 30.9458 176.378 22.887 177.805C-1.74941 182.192 36.1678 205.882 63.3695 186.528C39.3569 227.468 18.7702 207.298 8.76305 210.641C5.849 211.575 4.96457 215.008 8.7961 217.298C10.3196 218.186 12.4345 218.527 13.4149 220.145C14.9043 222.597 9.67715 222.834 8.27984 223.061C-1.01332 224.568 -11.1483 225.579 -19.4083 220.938C-25.9342 217.286 -30.6072 209.584 -30.8014 201.015C-31.0259 190.712 -22.864 185.87 -29.2938 180.486C-15.7742 173.98 -6.26161 162.605 -4.63785 162.756C11.7095 164.617 28.4709 180.059 56.3592 168.55C56.9439 168.31 56.6635 167.402 56.054 167.597C28.7713 178.44 12.2345 163.535 -4.15219 161.519C21.652 135.903 6.04644 137.145 31.209 140.79C67.9491 146.092 75.0654 134.645 71.6194 136.442C52.5763 146.356 28.7772 137.789 15.5801 137.797C24.2614 125.564 31.4075 113.193 39.1947 100.071C41.2236 100.734 64.4062 104.132 85.5808 93.1361C86.1853 92.8269 85.623 91.957 85.028 92.2631C64.2907 102.919 47.4809 99.2224 39.8591 98.9659C47.3075 86.4249 54.461 74.766 63.0856 63.6018C68.0076 64.0513 79.1556 61.3193 87.6557 54.3217C88.1604 53.8975 87.6141 53.012 87.0935 53.4518C80.5613 58.7916 72.4965 61.9092 64.0711 62.3514C69.8901 54.8218 76.406 47.8575 83.5321 41.5509C84.5353 40.6835 83.3462 37.6937 67.411 56.3563C65.301 52.8688 64.1115 48.9023 63.9543 44.8292C63.7972 40.756 64.6774 36.7097 66.5124 33.0699C66.5424 33.0127 66.5608 32.9502 66.5666 32.886C66.5723 32.8217 66.5654 32.7569 66.5462 32.6953C66.5269 32.6337 66.4957 32.5765 66.4544 32.5269C66.413 32.4774 66.3623 32.4365 66.3051 32.4065C66.248 32.3766 66.1855 32.3582 66.1212 32.3524C66.0569 32.3466 65.9921 32.3535 65.9305 32.3728C65.8689 32.392 65.8117 32.4232 65.7621 32.4646C65.7126 32.506 65.6717 32.5567 65.6418 32.6139C63.631 36.4555 62.6609 40.7565 62.8278 45.0894C62.9948 49.4222 64.293 53.6358 66.5935 57.3114C57.9315 67.6055 50.4815 78.9289 43.4437 90.4247C43.4389 75.1055 32.9951 64.3704 36.8521 38.9826C36.9611 38.3071 35.9107 38.0767 35.8047 38.7617C31.484 65.9467 43.0591 76.2143 42.0966 92.316C42.0621 92.8311 25.1122 121.763 15.118 135.928C1.95444 98.8781 15.4549 78.2864 3.56085 55.226C3.27949 54.6756 2.49868 55.1883 2.74842 55.7383C13.6453 77.2597 1.47446 110.751 14.2209 137.192C9.91288 143.302 5.24789 149.152 0.250308 154.711C1.66596 139.892 -20.4081 104.626 -27.207 78.0009C-27.39 77.4295 -28.225 77.7075 -28.0831 78.2816C-21.7346 105.828 0.45629 138.673 -1.09861 155.941C-1.25906 157.767 -20.8625 174.781 -21.6534 173.722C-27.0577 166.359 -54.9692 173.896 -63.9502 152.16C-66.168 146.811 -66.1629 166.719 -35.5698 170.862C-29.8957 171.627 -26.4824 171.268 -22.6307 174.539C-22.5335 174.613 -21.5242 174.027 -30.5868 179.629C-39.9131 174.217 -48.1862 186.97 -65.4327 177.322C-82.0633 168.024 -86.7142 143.514 -79.8682 129.748C-73.8284 117.596 -77.3493 133.414 -64.6906 143.786C-56.1572 150.755 -50.4999 146.716 -53.1735 138.962C-56.6674 128.877 -68.9425 125.47 -70.8243 114.092C-72.9417 100.405 -61.9463 90.1509 -50.9552 82.7017Z" fill="white" fill-opacity="0.38"/>
<path d="M11.4377 104.944C8.69381 112.439 19.3483 113.246 18.1047 104.908C17.4916 100.799 13.9003 98.2428 11.4377 104.944ZM13.8299 103.201C16.3047 99.2575 18.9441 108.314 14.7756 109.429C13.12 109.834 10.9618 107.785 13.8299 103.201Z" fill="white" fill-opacity="0.38"/>
<path d="M54.7548 110.879C61.8016 107.015 59.819 102.105 51.376 104.202C38.1375 107.488 38.914 119.546 54.7548 110.879ZM46.081 108.356C52.342 103.808 61.1735 104.465 56.2198 108.373C51.6876 111.925 45.9497 112.567 45.6535 113.018C45.5851 112.827 45.4488 112.667 45.2704 112.569C45.0919 112.472 44.8839 112.443 44.6856 112.489C43.9531 112.66 42.2918 111.113 46.0715 108.359L46.081 108.356Z" fill="white" fill-opacity="0.38"/>
</svg>
