<svg width="182" height="208" viewBox="0 0 182 208" fill="none" xmlns="http://www.w3.org/2000/svg">
<path d="M30.3602 121.369C32.4293 127.269 29.234 128.996 24.6858 126.6C11.9147 119.907 11.333 102.526 8.60735 104.932C-3.33619 115.407 -0.740778 141.53 11.0704 154.337C25.8892 170.401 42.6678 162.4 47.5668 161.828C51.1264 161.401 56.688 162.864 56.7312 167.292C56.7893 171.537 49.2614 177.603 54.1747 191.265C62.8347 215.31 97.5224 206.505 99.3345 205.147C101.147 203.789 101.439 200.671 96.0113 198.315C92.1252 196.641 90.3815 192.674 101.115 194.58C122.174 198.333 133.791 197.456 152.281 165.3C152.794 164.411 151.569 163.701 150.916 164.32C128.764 184.586 88.4387 167.538 106.592 161.795C112.258 159.979 119.585 162.199 125.479 163.094C150.517 166.81 167.735 149.89 165.358 132.149C164.768 127.749 159.705 140.954 140.959 142.55C129.318 143.55 116.831 138.3 120.588 133.967C130.327 122.708 189.238 146.244 177.27 93.1961C176.293 88.8362 173.112 101.879 154.38 110.8C146.497 114.576 123.769 120.136 123.799 112.199C123.729 108.41 130.804 107.55 146.364 103.677C174.82 96.6589 182.296 83.3845 178.367 55.5246C177.716 50.8713 171.159 65.6048 158.497 71.8675C146.877 77.6174 141.444 72.1336 152.653 63.1341C160.829 56.5661 172.982 53.5643 177.892 43.9475C183.763 32.4475 175.915 17.1002 180.33 9.24857C180.491 8.96583 182.258 6.64618 180.411 6.61833C168.601 6.4648 164.22 5.50608 162.455 9.86239C161.943 11.1499 161.533 14.9148 159.369 15.2406C158.127 15.4285 157.325 9.091 159.753 4.01821C161.208 0.989694 146.927 2.30006 144.23 8.99207C142.325 13.7294 144.904 17.8802 142.344 29.9785C137.622 52.2728 125.934 54.1384 131.688 26.5463C135.762 7.01166 143.583 0.483752 139.954 0.89051C130.723 1.93718 117.878 -2.72548 111.232 9.5687C103.259 24.2414 115.004 38.6444 115.64 64.1573C115.723 67.365 116.456 81.7471 109.893 78.5998C102.434 74.9835 111.368 61.9348 104.799 43.8257C102.464 37.3913 99.3136 32.2787 99.9336 23.8579C100.965 9.67669 110.625 5.47884 107.309 4.79819C100.637 3.40795 93.8618 8.38261 85.9862 12.8068C77.5153 17.5688 70.7275 20.3739 72.2429 30.0846C78.037 67.207 93.12 86.9145 85.3263 104.113C82.9679 100.521 62.1612 56.3643 69.8852 26.4297C70.1005 25.5941 69.0302 25.1705 68.4769 25.7049C58.3149 35.5451 39.854 42.7206 41.0222 59.7041C42.3318 78.9315 69.1791 91.8661 63.702 110.821C42.2211 82.4532 34.4733 74.561 35.679 63.3799C35.7045 63.2351 35.688 63.0859 35.6315 62.9502C35.5749 62.8144 35.4808 62.6977 35.36 62.6138C35.2392 62.5299 35.097 62.4823 34.95 62.4767C34.8031 62.4711 34.6576 62.5077 34.5308 62.5822C-11.1197 92.9506 26.9476 111.636 30.3602 121.369ZM34.0443 64.7017C33.7569 76.0612 41.419 83.9809 63.2073 113.112C63.556 113.577 64.4434 113.692 64.6976 113.044C74.9438 87.5722 25.6238 69.7521 48.907 43.9045C54.3282 37.8831 61.5876 33.9609 67.6864 28.6779C61.1597 59.531 84.1385 109.975 86.1595 106.156C95.2687 88.9667 82.4658 74.9657 74.2992 32.4709C72.9307 25.3488 72.8666 22.1666 82.0768 16.9262C97.4855 8.15607 100.882 6.00722 105.483 6.27593C89.3565 25.0945 104.978 40.912 105.649 57.3932C106.065 67.3093 104.055 71.5553 105.524 75.9777C107.055 80.5591 113.451 82.8885 115.946 77.7311C126.066 56.8786 95.1442 11.5 120.98 3.54712C126.62 1.81343 132.673 3.17116 138.498 2.86908C129.597 19.5613 126.489 40.3722 129.306 45.9173C131.365 49.9829 136.702 51.1078 140.993 40.6393C150.797 16.7061 137.56 4.98648 157.63 4.5722C156.27 8.15842 155.615 16.2752 158.475 17.0391C162.842 18.1811 163.788 10.4851 164.826 9.36507C166.197 7.87571 169.317 8.30422 173.408 8.35826C180.728 8.45942 178.091 7.30915 177.72 14.1801C177.124 23.8219 181.039 34.6959 176.564 43.3438C171.405 53.4605 157.243 55.9297 149.122 64.339C136.596 77.2888 154.88 84.4721 176.823 57.8152C178.179 68.4064 178.455 80.2468 171.246 88.8469C156.439 106.508 120.634 101.83 121.926 112.81C122.996 121.917 157.075 120.259 175.857 95.6337C184.496 135.31 147.854 126.217 127.95 129.644C99.034 134.636 139.43 157.573 163.652 134.229C164.262 146.949 153.886 160.544 135.132 161.891C124.428 162.664 115.945 158.378 107.886 159.805C83.2501 164.192 121.167 187.882 148.369 168.528C124.356 209.468 103.77 189.298 93.7626 192.641C90.8485 193.575 89.9641 197.008 93.7956 199.298C95.3191 200.186 97.434 200.527 98.4145 202.145C99.9039 204.597 94.6767 204.834 93.2794 205.061C83.9862 206.568 73.8513 207.579 65.5912 202.938C59.0653 199.286 54.3923 191.584 54.1982 183.015C53.9736 172.712 62.1355 167.87 55.7057 162.486C69.2253 155.98 78.7379 144.605 80.3617 144.756C96.709 146.617 113.47 162.059 141.359 150.55C141.943 150.31 141.663 149.402 141.054 149.597C113.771 160.44 97.234 145.535 80.8473 143.519C106.652 117.903 91.046 119.145 116.209 122.79C152.949 128.092 160.065 116.645 156.619 118.442C137.576 128.356 113.777 119.789 100.58 119.797C109.261 107.564 116.407 95.1934 124.194 82.0714C126.223 82.7338 149.406 86.1319 170.58 75.1361C171.185 74.8269 170.623 73.957 170.028 74.2631C149.29 84.9193 132.48 81.2224 124.859 80.9659C132.307 68.4249 139.461 56.766 148.085 45.6018C153.007 46.0513 164.155 43.3193 172.655 36.3217C173.16 35.8975 172.614 35.012 172.093 35.4518C165.561 40.7916 157.496 43.9092 149.071 44.3514C154.89 36.8218 161.405 29.8575 168.532 23.5509C169.535 22.6835 168.346 19.6937 152.411 38.3563C150.3 34.8688 149.111 30.9023 148.954 26.8292C148.797 22.756 149.677 18.7097 151.512 15.0699C151.542 15.0127 151.56 14.9502 151.566 14.886C151.572 14.8217 151.565 14.7569 151.546 14.6953C151.526 14.6337 151.495 14.5765 151.454 14.5269C151.413 14.4774 151.362 14.4365 151.305 14.4065C151.247 14.3766 151.185 14.3582 151.121 14.3524C151.056 14.3466 150.992 14.3535 150.93 14.3728C150.868 14.392 150.811 14.4232 150.762 14.4646C150.712 14.506 150.671 14.5567 150.641 14.6139C148.631 18.4555 147.66 22.7565 147.827 27.0894C147.994 31.4222 149.293 35.6358 151.593 39.3114C142.931 49.6055 135.481 60.9289 128.443 72.4247C128.438 57.1055 117.995 46.3704 121.852 20.9826C121.961 20.3071 120.91 20.0767 120.804 20.7617C116.483 47.9467 128.059 58.2143 127.096 74.316C127.062 74.8311 110.112 103.763 100.117 117.928C86.9539 80.8781 100.454 60.2864 88.5604 37.226C88.279 36.6756 87.4982 37.1883 87.7479 37.7383C98.6448 59.2597 86.474 92.7509 99.2204 119.192C94.9124 125.302 90.2474 131.152 85.2498 136.711C86.6655 121.892 64.5914 86.6261 57.7926 60.0009C57.6095 59.4295 56.7745 59.7075 56.9164 60.2816C63.2649 87.8282 85.4558 120.673 83.9009 137.941C83.7405 139.767 64.137 156.781 63.3461 155.722C57.9419 148.359 30.0304 155.896 21.0493 134.16C18.8315 128.811 18.8366 148.719 49.4297 152.862C55.1038 153.627 58.5171 153.268 62.3688 156.539C62.466 156.613 63.4754 156.027 54.4127 161.629C45.0864 156.217 36.8133 168.97 19.5669 159.322C2.93621 150.024 -1.71469 125.514 5.13134 111.748C11.1711 99.5956 7.65025 115.414 20.3089 125.786C28.8423 132.755 34.4996 128.716 31.826 120.962C28.3321 110.877 16.0571 107.47 14.1752 96.0918C12.0578 82.4051 23.0532 72.1509 34.0443 64.7017Z" fill="white" fill-opacity="0.38"/>
</svg>
