<svg width="104" height="246" viewBox="0 0 104 246" fill="none" xmlns="http://www.w3.org/2000/svg">
<path d="M200.833 139.369C198.764 145.269 201.959 146.996 206.507 144.6C219.278 137.907 219.86 120.526 222.586 122.932C234.529 133.407 231.934 159.53 220.122 172.337C205.304 188.401 188.525 180.4 183.626 179.828C180.066 179.401 174.505 180.864 174.462 185.292C174.404 189.537 181.931 195.603 177.018 209.265C168.358 233.31 133.67 224.505 131.858 223.147C130.046 221.789 129.754 218.671 135.182 216.315C139.068 214.641 140.811 210.674 130.078 212.58C109.018 216.333 97.4019 215.456 78.9122 183.3C78.399 182.411 79.6241 181.701 80.2764 182.32C102.429 202.586 142.754 185.538 124.601 179.795C118.935 177.979 111.608 180.199 105.714 181.094C80.6755 184.81 63.4576 167.89 65.8345 150.149C66.4252 145.749 71.4874 158.954 90.2343 160.55C101.874 161.55 114.362 156.3 110.605 151.967C100.866 140.708 41.9544 164.244 53.9226 111.196C54.8996 106.836 58.0813 119.879 76.8124 128.8C84.6963 132.576 107.424 138.136 107.394 130.199C107.464 126.41 100.389 125.55 84.8285 121.677C56.3728 114.659 48.8968 101.385 52.8255 73.5246C53.4765 68.8713 60.0334 83.6048 72.6963 89.8675C84.3159 95.6174 89.7484 90.1336 78.54 81.1341C70.3642 74.5661 58.2105 71.5643 53.3009 61.9475C47.43 50.4475 55.2775 35.1002 50.8628 27.2486C50.7014 26.9658 48.935 24.6462 50.7815 24.6183C62.5917 24.4648 66.9732 23.5061 68.738 27.8624C69.2496 29.1499 69.6603 32.9148 71.8241 33.2406C73.066 33.4285 73.8681 27.091 71.4403 22.0182C69.985 18.9897 84.2663 20.3001 86.9629 26.9921C88.8682 31.7294 86.2885 35.8802 88.8489 47.9785C93.5711 70.2728 105.259 72.1384 99.5044 44.5463C95.431 25.0117 87.61 18.4838 91.2389 18.8905C100.47 19.9372 113.315 15.2745 119.961 27.5687C127.934 42.2414 116.188 56.6444 115.553 82.1573C115.47 85.365 114.737 99.7471 121.3 96.5998C128.759 92.9835 119.825 79.9348 126.394 61.8257C128.729 55.3913 131.879 50.2787 131.259 41.8579C130.227 27.6767 120.568 23.4788 123.883 22.7982C130.556 21.408 137.331 26.3826 145.207 30.8068C153.678 35.5688 160.465 38.3739 158.95 48.0846C153.156 85.207 138.073 104.914 145.867 122.113C148.225 118.521 169.032 74.3643 161.308 44.4297C161.092 43.5941 162.163 43.1705 162.716 43.7049C172.878 53.5451 191.339 60.7206 190.171 77.7041C188.861 96.9315 162.014 109.866 167.491 128.821C188.972 100.453 196.72 92.561 195.514 81.3799C195.488 81.2351 195.505 81.0859 195.561 80.9502C195.618 80.8144 195.712 80.6977 195.833 80.6138C195.954 80.5299 196.096 80.4823 196.243 80.4767C196.39 80.4711 196.535 80.5077 196.662 80.5822C242.313 110.951 204.245 129.636 200.833 139.369ZM197.149 82.7017C197.436 94.0612 189.774 101.981 167.986 131.112C167.637 131.577 166.749 131.692 166.495 131.044C156.249 105.572 205.569 87.7521 182.286 61.9045C176.865 55.8831 169.605 51.9609 163.506 46.6779C170.033 77.531 147.054 127.975 145.033 124.156C135.924 106.967 148.727 92.9657 156.894 50.4709C158.262 43.3488 158.326 40.1666 149.116 34.9262C133.707 26.1561 130.311 24.0072 125.71 24.2759C141.836 43.0945 126.215 58.912 125.544 75.3932C125.128 85.3093 127.138 89.5553 125.669 93.9777C124.138 98.5591 117.742 100.889 115.246 95.7311C105.127 74.8786 136.049 29.5 110.213 21.5471C104.573 19.8134 98.5203 21.1712 92.6946 20.8691C101.596 37.5613 104.703 58.3722 101.887 63.9173C99.8283 67.9829 94.4905 69.1078 90.2003 58.6393C80.3958 34.7061 93.6333 22.9865 73.5624 22.5722C74.923 26.1584 75.5774 34.2752 72.7179 35.0391C68.3512 36.1811 67.4044 28.4851 66.3667 27.3651C64.9958 25.8757 61.8763 26.3042 57.7846 26.3583C50.4646 26.4594 53.1014 25.3092 53.4724 32.1801C54.0687 41.8219 50.1539 52.6959 54.6284 61.3438C59.7874 71.4605 73.9494 73.9297 82.0707 82.339C94.5965 95.2888 76.3125 102.472 54.3702 75.8152C53.0137 86.4064 52.7375 98.2468 59.947 106.847C74.7542 124.508 110.559 119.83 109.267 130.81C108.197 139.917 74.1176 138.259 55.3362 113.634C46.6972 153.31 83.3393 144.217 103.243 147.644C132.159 152.636 91.763 175.573 67.5412 152.229C66.9305 164.949 77.3071 178.544 96.0605 179.891C106.765 180.664 115.248 176.378 123.306 177.805C147.943 182.192 110.026 205.882 82.8239 186.528C106.837 227.468 127.423 207.298 137.43 210.641C140.344 211.575 141.229 215.008 137.397 217.298C135.874 218.186 133.759 218.527 132.778 220.145C131.289 222.597 136.516 222.834 137.914 223.061C147.207 224.568 157.342 225.579 165.602 220.938C172.128 217.286 176.801 209.584 176.995 201.015C177.219 190.712 169.057 185.87 175.487 180.486C161.968 173.98 152.455 162.605 150.831 162.756C134.484 164.617 117.722 180.059 89.8342 168.55C89.2495 168.31 89.5299 167.402 90.1393 167.597C117.422 178.44 133.959 163.535 150.346 161.519C124.541 135.903 140.147 137.145 114.984 140.79C78.2443 146.092 71.128 134.645 74.5739 136.442C93.6171 146.356 117.416 137.789 130.613 137.797C121.932 125.564 114.786 113.193 106.999 100.071C104.97 100.734 81.7872 104.132 60.6126 93.1361C60.0081 92.8269 60.5704 91.957 61.1653 92.2631C81.9027 102.919 98.7125 99.2224 106.334 98.9659C98.8859 86.4249 91.7324 74.766 83.1077 63.6018C78.1858 64.0513 67.0378 61.3193 58.5376 54.3217C58.033 53.8975 58.5793 53.012 59.0999 53.4518C65.632 58.7916 73.6969 61.9092 82.1223 62.3514C76.3032 54.8218 69.7874 47.8575 62.6612 41.5509C61.6581 40.6835 62.8471 37.6937 78.7823 56.3563C80.8924 52.8688 82.0818 48.9023 82.239 44.8292C82.3962 40.756 81.516 36.7097 79.6809 33.0699C79.651 33.0127 79.6326 32.9502 79.6268 32.886C79.621 32.8217 79.6279 32.7569 79.6472 32.6953C79.6664 32.6337 79.6976 32.5765 79.739 32.5269C79.7803 32.4774 79.8311 32.4365 79.8882 32.4065C79.9454 32.3766 80.0079 32.3582 80.0722 32.3524C80.1364 32.3466 80.2012 32.3535 80.2628 32.3728C80.3244 32.392 80.3817 32.4232 80.4312 32.4646C80.4808 32.506 80.5217 32.5567 80.5516 32.6139C82.5624 36.4555 83.5325 40.7565 83.3655 45.0894C83.1985 49.4222 81.9003 53.6358 79.5999 57.3114C88.2618 67.6055 95.7119 78.9289 102.75 90.4247C102.754 75.1055 113.198 64.3704 109.341 38.9826C109.232 38.3071 110.283 38.0767 110.389 38.7617C114.709 65.9467 103.134 76.2143 104.097 92.316C104.131 92.8311 121.081 121.763 131.075 135.928C144.239 98.8781 130.738 78.2864 142.633 55.226C142.914 54.6756 143.695 55.1883 143.445 55.7383C132.548 77.2597 144.719 110.751 131.972 137.192C136.28 143.302 140.945 149.152 145.943 154.711C144.527 139.892 166.601 104.626 173.4 78.0009C173.583 77.4295 174.418 77.7075 174.276 78.2816C167.928 105.828 145.737 138.673 147.292 155.941C147.452 157.767 167.056 174.781 167.847 173.722C173.251 166.359 201.163 173.896 210.144 152.16C212.361 146.811 212.356 166.719 181.763 170.862C176.089 171.627 172.676 171.268 168.824 174.539C168.727 174.613 167.718 174.027 176.78 179.629C186.106 174.217 194.38 186.97 211.626 177.322C228.257 168.024 232.908 143.514 226.062 129.748C220.022 117.596 223.543 133.414 210.884 143.786C202.351 150.755 196.693 146.716 199.367 138.962C202.861 128.877 215.136 125.47 217.018 114.092C219.135 100.405 208.14 90.1509 197.149 82.7017Z" fill="white" fill-opacity="0.38"/>
<path d="M91.4387 110.879C84.3919 107.015 86.3744 102.105 94.8174 104.202C108.056 107.488 107.279 119.546 91.4387 110.879ZM100.112 108.356C93.8514 103.808 85.0199 104.465 89.9737 108.373C94.5059 111.925 100.244 112.566 100.54 113.018C100.608 112.827 100.745 112.667 100.923 112.569C101.102 112.472 101.31 112.443 101.508 112.488C102.24 112.66 103.902 111.113 100.122 108.359L100.112 108.356Z" fill="white" fill-opacity="0.38"/>
</svg>
