<svg width="184" height="31" viewBox="0 0 184 31" fill="none" xmlns="http://www.w3.org/2000/svg">
<path d="M6.96 0.709999C7.56 0.709999 8.38 0.669999 9.42 0.589999C10.42 0.509999 11.16 0.469999 11.64 0.469999C14.34 0.469999 16.3 0.979999 17.52 2C18.74 3.02 19.35 4.57 19.35 6.65C19.35 8.47 18.93 10.03 18.09 11.33C17.25 12.63 16.07 13.62 14.55 14.3C13.05 14.98 11.31 15.32 9.33 15.32C8.51 15.32 7.8 15.3 7.2 15.26L6.51 21.2L10.11 21.62L10.02 23H0L0.15 21.62L2.22 21.2L4.65 2.54L2.55 2.18L2.73 0.709999H6.96ZM7.44 13.4C8 13.52 8.68 13.58 9.48 13.58C11.24 13.56 12.59 12.92 13.53 11.66C14.49 10.4 14.98 8.67 15 6.47C15 3.61 13.65 2.18 10.95 2.18C10.29 2.18 9.61 2.24 8.91 2.36L7.44 13.4ZM25.8523 10.28C26.2323 9.14 26.8823 8.14 27.8023 7.28C28.7423 6.4 29.7923 5.96 30.9523 5.96C31.3523 5.96 31.6923 6.05 31.9723 6.23L31.1023 10.55C30.9823 10.45 30.7823 10.36 30.5023 10.28C30.2423 10.18 29.9223 10.13 29.5423 10.13C28.8223 10.13 28.1323 10.29 27.4723 10.61C26.8123 10.91 26.3023 11.35 25.9423 11.93L24.4723 23H20.5723L22.4623 8.75L20.9323 7.91L21.1423 6.71L25.4323 5.99L26.1223 6.41L25.9723 9.14L25.8523 10.28ZM45.3248 20C44.8048 20.82 43.9548 21.59 42.7748 22.31C41.6148 23.03 40.2648 23.39 38.7248 23.39C37.2848 23.39 36.0948 23.08 35.1548 22.46C34.2348 21.84 33.5648 21.03 33.1448 20.03C32.7248 19.03 32.5148 17.94 32.5148 16.76C32.5148 14.76 32.9148 12.94 33.7148 11.3C34.5348 9.64 35.6448 8.33 37.0448 7.37C38.4448 6.41 40.0048 5.93 41.7248 5.93C43.2648 5.93 44.4048 6.29 45.1448 7.01C45.9048 7.71 46.2848 8.63 46.2848 9.77C46.2848 11.21 45.7648 12.41 44.7248 13.37C43.6848 14.33 42.4348 15.05 40.9748 15.53C39.5148 15.99 38.1348 16.24 36.8348 16.28C36.7948 17.72 37.0248 18.88 37.5248 19.76C38.0448 20.64 38.8248 21.08 39.8648 21.08C41.5848 21.08 43.1448 20.28 44.5448 18.68L45.3248 20ZM40.8248 7.79C39.6448 7.79 38.7148 8.5 38.0348 9.92C37.3548 11.34 36.9548 12.92 36.8348 14.66C37.6148 14.62 38.4348 14.41 39.2948 14.03C40.1748 13.65 40.9048 13.12 41.4848 12.44C42.0848 11.74 42.3848 10.94 42.3848 10.04C42.3848 9.32 42.2448 8.77 41.9648 8.39C41.7048 7.99 41.3248 7.79 40.8248 7.79ZM53.1687 17.51C53.0287 18.67 52.9587 19.37 52.9587 19.61C52.9587 20.07 53.0487 20.4 53.2287 20.6C53.4087 20.78 53.7187 20.87 54.1587 20.87C54.5587 20.87 55.0087 20.78 55.5087 20.6C56.0287 20.4 56.4587 20.16 56.7987 19.88L57.1287 20.99C56.6087 21.57 55.8687 22.1 54.9087 22.58C53.9487 23.06 52.8687 23.3 51.6687 23.3C50.8287 23.3 50.1587 23.09 49.6587 22.67C49.1787 22.23 48.9387 21.54 48.9387 20.6C48.9387 20.2 49.0387 19.26 49.2387 17.78L50.4987 8.48H48.6987L49.0287 7.04L50.8287 6.41C51.4287 5.85 52.1387 4.47 52.9587 2.27H55.2087L54.6987 6.35H58.2987L57.9987 8.48H54.3987L53.1687 17.51ZM63.8327 17.51C63.6927 18.67 63.6227 19.37 63.6227 19.61C63.6227 20.07 63.7127 20.4 63.8927 20.6C64.0727 20.78 64.3827 20.87 64.8227 20.87C65.2227 20.87 65.6727 20.78 66.1727 20.6C66.6927 20.4 67.1227 20.16 67.4627 19.88L67.7927 20.99C67.2727 21.57 66.5327 22.1 65.5727 22.58C64.6127 23.06 63.5327 23.3 62.3327 23.3C61.4927 23.3 60.8227 23.09 60.3227 22.67C59.8427 22.23 59.6027 21.54 59.6027 20.6C59.6027 20.2 59.7027 19.26 59.9027 17.78L61.1627 8.48H59.3627L59.6927 7.04L61.4927 6.41C62.0927 5.85 62.8027 4.47 63.6227 2.27H65.8727L65.3627 6.35H68.9627L68.6627 8.48H65.0627L63.8327 17.51ZM70.5968 9.2C70.5168 8.86 70.4268 8.63 70.3268 8.51C70.2268 8.37 70.0968 8.3 69.9368 8.3C69.6768 8.3 69.3768 8.44 69.0368 8.72L68.6168 7.7C68.8568 7.38 69.3068 7.02 69.9668 6.62C70.6468 6.2 71.3668 5.99 72.1268 5.99C72.9068 5.99 73.4868 6.16 73.8668 6.5C74.2468 6.82 74.4868 7.32 74.5868 8L76.3268 19.4L76.7468 22.7L78.1568 19.85C79.0168 18.05 79.6668 16.47 80.1068 15.11C80.5668 13.75 80.7968 12.45 80.7968 11.21C80.7968 10.83 80.7668 10.51 80.7068 10.25C80.6468 9.99 80.5568 9.69 80.4368 9.35C80.2168 8.79 80.1068 8.26 80.1068 7.76C80.1068 7.22 80.2668 6.79 80.5868 6.47C80.9268 6.15 81.4068 5.99 82.0268 5.99C82.7468 5.99 83.3068 6.27 83.7068 6.83C84.1268 7.39 84.3368 8.07 84.3368 8.87C84.3368 10.29 84.1068 11.64 83.6468 12.92C83.1868 14.18 82.4868 15.75 81.5468 17.63C80.8868 19.07 80.0268 20.67 78.9668 22.43C77.9268 24.17 77.0068 25.64 76.2068 26.84C75.3868 28.14 74.5068 29.08 73.5668 29.66C72.6468 30.24 71.5468 30.53 70.2668 30.53C69.7468 30.53 69.1768 30.46 68.5568 30.32C67.9568 30.2 67.5468 30.07 67.3268 29.93L68.2568 27.32C68.4768 27.52 68.8468 27.7 69.3668 27.86C69.8868 28.02 70.3968 28.1 70.8968 28.1C71.7968 28.1 72.6568 27.78 73.4768 27.14C74.3168 26.52 75.1468 25.5 75.9668 24.08H73.8068L70.5968 9.2ZM104.361 2.87C103.741 2.37 102.871 2.12 101.751 2.12C100.651 2.12 99.7513 2.39 99.0513 2.93C98.3713 3.45 98.0313 4.16 98.0313 5.06C98.0313 6.12 98.3513 7.02 98.9913 7.76C99.6513 8.48 100.731 9.31 102.231 10.25C103.671 11.15 104.801 12.09 105.621 13.07C106.461 14.05 106.881 15.23 106.881 16.61C106.901 17.87 106.591 19.01 105.951 20.03C105.311 21.05 104.361 21.86 103.101 22.46C101.861 23.04 100.371 23.33 98.6313 23.33C97.2113 23.33 95.8513 23.18 94.5513 22.88C93.2513 22.56 92.4013 22.25 92.0013 21.95L92.7813 17.48H95.2713L95.4213 20.69C95.7813 20.97 96.2313 21.19 96.7713 21.35C97.3313 21.51 97.9313 21.59 98.5713 21.59C99.9313 21.59 100.991 21.29 101.751 20.69C102.531 20.07 102.921 19.24 102.921 18.2C102.921 17.24 102.621 16.42 102.021 15.74C101.421 15.04 100.441 14.26 99.0813 13.4C97.5813 12.46 96.3913 11.47 95.5113 10.43C94.6513 9.39 94.2113 8.17 94.1913 6.77C94.1913 5.47 94.5313 4.34 95.2113 3.38C95.8913 2.42 96.8213 1.69 98.0013 1.19C99.2013 0.689999 100.551 0.439999 102.051 0.439999C104.591 0.439999 106.491 0.819999 107.751 1.58L107.001 5.78H104.721L104.361 2.87ZM114.223 17.51C114.083 18.67 114.013 19.37 114.013 19.61C114.013 20.07 114.103 20.4 114.283 20.6C114.463 20.78 114.773 20.87 115.213 20.87C115.613 20.87 116.063 20.78 116.563 20.6C117.083 20.4 117.513 20.16 117.853 19.88L118.183 20.99C117.663 21.57 116.923 22.1 115.963 22.58C115.003 23.06 113.923 23.3 112.723 23.3C111.883 23.3 111.213 23.09 110.713 22.67C110.233 22.23 109.993 21.54 109.993 20.6C109.993 20.2 110.093 19.26 110.293 17.78L111.553 8.48H109.753L110.083 7.04L111.883 6.41C112.483 5.85 113.193 4.47 114.013 2.27H116.263L115.753 6.35H119.353L119.053 8.48H115.453L114.223 17.51ZM129.027 5.93C131.107 5.93 132.697 6.54 133.797 7.76C134.897 8.96 135.447 10.69 135.447 12.95C135.447 14.81 135.067 16.54 134.307 18.14C133.547 19.74 132.477 21.02 131.097 21.98C129.717 22.92 128.137 23.39 126.357 23.39C124.277 23.39 122.687 22.78 121.587 21.56C120.507 20.32 119.967 18.56 119.967 16.28C119.967 14.4 120.337 12.67 121.077 11.09C121.837 9.51 122.907 8.26 124.287 7.34C125.667 6.4 127.247 5.93 129.027 5.93ZM128.517 7.82C127.597 7.82 126.817 8.24 126.177 9.08C125.537 9.9 125.057 10.95 124.737 12.23C124.437 13.51 124.287 14.82 124.287 16.16C124.287 18.06 124.497 19.45 124.917 20.33C125.357 21.21 126.037 21.65 126.957 21.65C127.857 21.65 128.617 21.23 129.237 20.39C129.857 19.55 130.317 18.48 130.617 17.18C130.917 15.88 131.067 14.55 131.067 13.19C131.067 11.29 130.857 9.92 130.437 9.08C130.037 8.24 129.397 7.82 128.517 7.82ZM143.693 9.59C144.433 8.49 145.313 7.61 146.333 6.95C147.353 6.29 148.423 5.96 149.543 5.96C152.023 5.96 153.263 7.43 153.263 10.37C153.263 11.15 153.013 12.89 152.513 15.59C152.433 16.11 152.363 16.51 152.303 16.79C152.023 18.37 151.873 19.51 151.853 20.21V20.33C151.853 20.83 152.013 21.08 152.333 21.08C152.513 21.08 152.703 21.03 152.903 20.93C153.103 20.83 153.363 20.65 153.683 20.39L154.103 21.32C153.803 21.74 153.313 22.18 152.633 22.64C151.953 23.08 151.123 23.3 150.143 23.3C149.203 23.3 148.553 23.1 148.193 22.7C147.833 22.28 147.653 21.73 147.653 21.05C147.673 20.45 147.863 19.26 148.223 17.48L148.403 16.46C148.443 16.28 148.523 15.8 148.643 15.02C148.783 14.24 148.893 13.5 148.973 12.8C149.053 12.08 149.093 11.46 149.093 10.94C149.093 10.02 148.983 9.39 148.763 9.05C148.563 8.71 148.193 8.54 147.653 8.54C146.993 8.54 146.253 8.91 145.433 9.65C144.633 10.39 143.943 11.28 143.363 12.32L141.923 23H137.993L139.913 8.72L138.383 7.91L138.623 6.68L143.303 5.96L143.993 6.29L143.693 9.59ZM169.28 20C168.76 20.82 167.91 21.59 166.73 22.31C165.57 23.03 164.22 23.39 162.68 23.39C161.24 23.39 160.05 23.08 159.11 22.46C158.19 21.84 157.52 21.03 157.1 20.03C156.68 19.03 156.47 17.94 156.47 16.76C156.47 14.76 156.87 12.94 157.67 11.3C158.49 9.64 159.6 8.33 161 7.37C162.4 6.41 163.96 5.93 165.68 5.93C167.22 5.93 168.36 6.29 169.1 7.01C169.86 7.71 170.24 8.63 170.24 9.77C170.24 11.21 169.72 12.41 168.68 13.37C167.64 14.33 166.39 15.05 164.93 15.53C163.47 15.99 162.09 16.24 160.79 16.28C160.75 17.72 160.98 18.88 161.48 19.76C162 20.64 162.78 21.08 163.82 21.08C165.54 21.08 167.1 20.28 168.5 18.68L169.28 20ZM164.78 7.79C163.6 7.79 162.67 8.5 161.99 9.92C161.31 11.34 160.91 12.92 160.79 14.66C161.57 14.62 162.39 14.41 163.25 14.03C164.13 13.65 164.86 13.12 165.44 12.44C166.04 11.74 166.34 10.94 166.34 10.04C166.34 9.32 166.2 8.77 165.92 8.39C165.66 7.99 165.28 7.79 164.78 7.79ZM182.494 9.2C182.254 8.92 181.854 8.63 181.294 8.33C180.754 8.03 180.124 7.88 179.404 7.88C178.604 7.88 177.954 8.06 177.454 8.42C176.974 8.76 176.734 9.27 176.734 9.95C176.734 10.55 176.934 11.09 177.334 11.57C177.754 12.03 178.424 12.59 179.344 13.25C180.364 14.01 181.144 14.75 181.684 15.47C182.224 16.17 182.494 17.07 182.494 18.17C182.494 19.27 182.194 20.21 181.594 20.99C180.994 21.75 180.194 22.33 179.194 22.73C178.194 23.11 177.094 23.3 175.894 23.3C174.994 23.3 174.074 23.2 173.134 23C172.194 22.78 171.584 22.55 171.304 22.31L171.904 19.76C172.324 20.12 172.894 20.46 173.614 20.78C174.334 21.1 175.084 21.26 175.864 21.26C176.604 21.26 177.234 21.09 177.754 20.75C178.294 20.41 178.564 19.88 178.564 19.16C178.564 18.54 178.334 17.98 177.874 17.48C177.414 16.98 176.724 16.41 175.804 15.77C174.964 15.19 174.254 14.51 173.674 13.73C173.114 12.93 172.834 11.97 172.834 10.85C172.834 9.89 173.104 9.04 173.644 8.3C174.204 7.56 174.964 6.99 175.924 6.59C176.904 6.17 178.024 5.96 179.284 5.96C180.024 5.96 180.774 6.02 181.534 6.14C182.294 6.26 182.804 6.39 183.064 6.53L182.494 9.2Z" fill="white"/>
</svg>
