<svg width="16" height="16" viewBox="0 0 16 16" fill="none" xmlns="http://www.w3.org/2000/svg">
<path fill-rule="evenodd" clip-rule="evenodd" d="M0.306883 6.50234L4.05277 7.81523C4.32947 7.91256 4.63818 7.88101 4.88665 7.73123L13.2052 2.71345L6.34406 8.89923C6.15912 9.06589 6.05371 9.29701 6.05277 9.53834L6.02924 14.8974C6.02735 15.3788 6.72335 15.5197 6.92994 15.0797L8.76194 11.1774C8.87441 10.9383 9.17982 10.8419 9.42171 10.9694L14.2801 13.5272C14.585 13.6881 14.9629 13.4894 14.9789 13.1601L15.609 0.465449C15.625 0.141449 15.2796 -0.0892172 14.9615 0.0334494L0.293236 5.67434C-0.104411 5.82723 -0.0954696 6.36145 0.306883 6.50234Z" fill="white"/>
</svg>
